<?xml version="1.0" standalone="no"?>
<!DOCTYPE svg PUBLIC "-//W3C//DTD SVG 20010904//EN"
 "http://www.w3.org/TR/2001/REC-SVG-20010904/DTD/svg10.dtd">
<svg version="1.0" xmlns="http://www.w3.org/2000/svg"
 width="512.000000pt" height="512.000000pt" viewBox="0 0 512.000000 512.000000"
 preserveAspectRatio="xMidYMid meet">
<metadata>
Created by potrace 1.14, written by Peter Selinger 2001-2017
</metadata>
<g transform="translate(0.000000,512.000000) scale(0.100000,-0.100000)"
fill="#000000" stroke="none">
<path d="M390 5104 c-30 -8 -80 -26 -110 -41 -72 -35 -188 -151 -223 -223 -61
-126 -57 23 -57 -2280 0 -2303 -4 -2154 57 -2280 35 -72 151 -188 223 -223
126 -61 -23 -57 2280 -57 2303 0 2154 -4 2280 57 72 35 188 151 223 223 58
120 57 112 57 889 l0 714 -61 -67 c-115 -125 -238 -196 -376 -216 -122 -18
-192 8 -232 88 -25 50 -33 90 -40 202 l-6 95 -24 -45 c-73 -137 -161 -236
-259 -288 -165 -88 -399 -77 -558 26 -103 67 -157 165 -174 314 -12 99 -2 155
89 512 93 363 111 456 111 563 0 144 -32 213 -100 213 -37 0 -55 -9 -140 -70
-119 -87 -166 -75 -157 37 7 96 59 168 167 235 97 59 266 84 364 53 116 -37
203 -152 227 -303 18 -108 0 -235 -75 -560 -79 -337 -96 -431 -96 -536 0 -99
25 -159 80 -191 48 -28 148 -26 214 3 167 75 309 335 365 672 17 102 19 149
14 407 -7 340 -5 350 78 428 62 58 124 86 205 93 l62 5 19 -34 c15 -29 18 -57
18 -194 -1 -137 -8 -204 -48 -475 -79 -535 -96 -815 -54 -913 34 -79 72 -61
250 112 l137 134 0 1241 c0 1355 3 1292 -57 1416 -35 72 -151 188 -223 223
-127 61 23 57 -2285 56 -1816 0 -2118 -2 -2165 -15z m2480 -1569 c22 -26 5
-183 -60 -575 -33 -201 -63 -377 -66 -392 l-6 -28 174 -1 c196 0 242 -9 245
-49 3 -41 -67 -171 -107 -198 -34 -23 -40 -24 -191 -20 l-157 5 -6 -46 c-17
-121 -37 -338 -43 -467 -8 -181 -7 -179 -137 -179 -78 0 -99 4 -141 25 -42 21
-55 35 -80 85 -29 58 -30 65 -28 180 1 80 10 165 27 257 14 76 26 140 26 144
0 8 -126 -4 -330 -32 -96 -13 -193 -24 -215 -24 -105 0 -275 166 -275 268 0
88 106 302 302 612 72 113 144 226 160 253 79 124 164 116 162 -17 0 -34 -17
-97 -48 -186 -114 -320 -157 -451 -180 -544 -14 -55 -24 -101 -23 -102 1 -1
27 4 57 12 30 9 141 20 245 25 105 6 195 12 201 14 7 2 17 27 24 57 21 92 138
472 176 575 80 217 153 331 227 352 46 13 53 13 67 -4z m-1178 -8 c32 -16 28
-49 -15 -146 -61 -136 -62 -137 -292 -134 -99 1 -226 5 -281 9 l-101 6 -7 -74
c-4 -40 -28 -187 -52 -327 -86 -496 -121 -759 -133 -1011 -6 -120 -12 -174
-24 -197 -22 -42 -92 -74 -191 -86 -162 -20 -171 -8 -171 238 0 190 9 262 66
555 55 282 145 605 218 785 23 54 41 102 41 105 0 20 -224 -24 -410 -80 -167
-50 -233 -64 -264 -56 -39 10 -33 44 19 114 74 101 212 197 364 252 153 56
189 59 726 57 270 -1 497 -6 507 -10z"/>
</g>
</svg>
